<svg width="236" height="236" viewBox="0 0 236 236" fill="none" xmlns="http://www.w3.org/2000/svg">
<path d="M90.5813 6.75809C108.591 2.31912 127.409 2.31912 145.419 6.75809V6.75809C163.428 11.1971 180.091 19.9423 193.975 32.2423V32.2423C207.859 44.5423 218.548 60.0293 225.126 77.3725V77.3725C231.703 94.7158 233.972 113.397 231.736 131.81V131.81C229.5 150.223 222.827 167.819 212.29 183.084V183.084C201.753 198.349 187.668 210.828 171.244 219.448V219.448C154.82 228.068 136.549 232.571 118 232.571V232.571C99.4514 232.571 81.1801 228.068 64.7561 219.448V219.448C48.3322 210.828 34.2466 198.349 23.7098 183.084V183.084C13.173 167.819 6.50001 150.223 4.26422 131.81V131.81C2.02843 113.397 4.2967 94.7158 10.8741 77.3725V77.3725C17.4516 60.0293 28.1414 44.5423 42.0253 32.2423V32.2423C55.9091 19.9423 72.5717 11.1971 90.5813 6.75809V6.75809Z" fill="#3767FB"/>
<g clip-path="url(#clip0_6143_662)">
<path d="M166.073 96.141L157.391 104.823L139.909 87.3419L148.592 78.6595C151.039 76.2121 154.186 75.0466 157.332 75.0466C160.479 75.0466 163.626 76.2121 166.073 78.6595C170.91 83.496 170.91 91.3044 166.073 96.141Z" fill="white"/>
<path d="M153.31 108.962L90.3181 171.896C85.4815 176.732 77.6731 176.732 72.8366 171.896C68 167.059 68 159.251 72.8366 154.414L135.828 91.481L153.31 108.962Z" fill="white"/>
<path d="M110.428 72.8416L112.817 64.7418C113.05 63.9843 112.817 63.1685 112.293 62.5858C111.768 62.0031 110.836 61.77 110.078 62.0031L101.979 64.3922L93.8788 62.0031C93.1213 61.77 92.3055 62.0031 91.7227 62.5275C91.14 63.1102 90.9652 63.926 91.1983 64.6836L93.5292 72.8416L91.14 80.9413C90.9069 81.6988 91.14 82.5147 91.6645 83.0974C92.2472 83.6801 93.063 83.8549 93.8205 83.6218L101.979 81.291L110.078 83.6801C110.311 83.7384 110.486 83.7967 110.719 83.7967C111.302 83.7967 111.826 83.5636 112.293 83.1557C112.875 82.573 113.05 81.7571 112.817 80.9996L110.428 72.8416Z" fill="white"/>
<path d="M87.1193 107.805L89.5084 99.7048C89.7415 98.9473 89.5084 98.1315 88.984 97.5488C88.4013 96.9661 87.5855 96.7913 86.8279 97.0244L78.6699 99.3552L70.5701 96.9661C69.8126 96.733 68.9968 96.9661 68.4141 97.4905C67.8314 98.0732 67.6566 98.889 67.8897 99.6466L70.2205 107.805L67.8314 115.904C67.5983 116.662 67.8314 117.478 68.3558 118.06C68.9385 118.643 69.7543 118.818 70.5118 118.585L78.6116 116.196L86.7114 118.585C86.8862 118.643 87.1193 118.643 87.3523 118.643C87.935 118.643 88.4595 118.41 88.9257 118.002C89.5084 117.419 89.6832 116.604 89.4501 115.846L87.1193 107.805Z" fill="white"/>
<path d="M174.522 136.937L176.911 128.838C177.144 128.08 176.911 127.264 176.387 126.682C175.804 126.099 174.988 125.924 174.231 126.157L166.131 128.546L158.031 126.157C157.274 125.924 156.458 126.157 155.875 126.682C155.292 127.264 155.118 128.08 155.351 128.838L157.74 136.937L155.351 145.037C155.118 145.795 155.351 146.61 155.875 147.193C156.458 147.776 157.274 147.951 158.031 147.718L166.131 145.329L174.231 147.718C174.405 147.776 174.639 147.776 174.872 147.776C175.454 147.776 175.979 147.543 176.445 147.135C177.028 146.552 177.202 145.736 176.969 144.979L174.522 136.937Z" fill="white"/>
</g>
<defs>
<clipPath id="clip0_6143_662">
<rect width="122.37" height="122.37" fill="white" transform="translate(61.1854 61.1843)"/>
</clipPath>
</defs>
</svg>
